<svg xmlns="http://www.w3.org/2000/svg" viewBox="0 0 125 67.5">
  <path fill="none" stroke="#FFF" stroke-width="5" d="M5 45h20"/>
  <path fill="none" stroke="#FFF" stroke-width="5" d="M25 30v35m37.5-40v40" stroke-linecap="round"/>
  <path fill="none" stroke="#FFF" stroke-width="5" d="M50 25h25M62.5 45h20"/>
  <path fill="none" stroke="#FFF" stroke-width="5" d="M82.5 25v20" stroke-linecap="square"/>
  <path fill="none" stroke="#FFF" stroke-width="5" d="M82.5 45c0 10-.8 20 10 20s10-10 10-20"/>
  <path fill="none" stroke="#FFF" stroke-width="5" d="M102.5 25v20" stroke-linecap="square"/>
  <path fill="none" stroke="#FFF" stroke-width="5" d="M102.5 45c7.5 0 20 2.5 20-10 0-10-10-10-12.5-10"/>
  <path fill="none" stroke="#FFF" stroke-width="5" d="M102.5 45l20 20m-120 0C2.5 47.5 10 15 50 2.5" stroke-linecap="round"/>
  <path fill="none" stroke="#FFF" stroke-width="5" d="M25 45c5 0 20 2.5 20-10 0-10-10-10-12.5-10"/>
  <path fill="none" stroke="#FFF" stroke-width="5" d="M25 45l20 20" stroke-linecap="round"/>
  <path fill="#FFF" d="M45 22.5c3.3 2 4 3 5 5v-5zm-22.5 5c.7-1 2.5-3 5-5v5zm0 0V30h5v-2.5z"/>
</svg>