<svg width="259" height="137" viewBox="0 0 259 137" fill="none" xmlns="http://www.w3.org/2000/svg">
<path d="M69 47V57C69 57 89 57 89 72C89 87 69 87 69 87H59L59 47C59 47 58.0001 47.5 53.5 52C48.9999 56.5 49 57 49 57L49 132C49 132 49 137 54 137C59 137 59 132 59 132V104L91 136C91 136 94.5 138.5 97.5 135.5C100.5 132.5 98 129 98 129L66 97H69C69 97 99 97 99 72C99 47 69 47 69 47Z" fill="#F5F5F5"/>
<path d="M134 87H169L169 47H179V97H134V87Z" fill="#F5F5F5"/>
<path d="M209 112V47H219L218 112C218 112 219 137 194 137C169 137 169 112 169 112V92H179V112C179 112 179 127 194 127C209 127 209 112 209 112Z" fill="#F5F5F5"/>
<path d="M229 47V57C229 57 249 57 249 72C249 87 229 87 229 87H214V99L251 136C251 136 254.5 138.5 257.5 135.5C260.5 132.5 258 129 258 129L226 97H229C229 97 259 97 259 72C259 47 229 47 229 47Z" fill="#F5F5F5"/>
<path d="M129 57V132C129 132 129 137 134 137C139 137 139 132 139 132V57H159V47H98C98 47 99.5 48 102.5 51.5C104.281 53.5774 106 57 106 57H129Z" fill="#F5F5F5"/>
<path d="M6 132C5.5 87 34 22 111 6" stroke="#F5F5F5" stroke-width="10" stroke-linecap="round"/>
<path d="M14 87H54V97H14V87Z" fill="#F5F5F5"/>
</svg>
